<?xml version="1.0" encoding="UTF-8" standalone="no"?>
<svg
   xmlns:dc="http://purl.org/dc/elements/1.1/"
   xmlns:cc="http://creativecommons.org/ns#"
   xmlns:rdf="http://www.w3.org/1999/02/22-rdf-syntax-ns#"
   xmlns:svg="http://www.w3.org/2000/svg"
   xmlns="http://www.w3.org/2000/svg"
   viewBox="0 0 93.385864 129.33333"
   height="129.33333"
   width="93.385864"
   xml:space="preserve"
   id="svg2"
   version="1.1"><metadata
     id="metadata8"><rdf:RDF><cc:Work
         rdf:about=""><dc:format>image/svg+xml</dc:format><dc:type
           rdf:resource="http://purl.org/dc/dcmitype/StillImage" /></cc:Work></rdf:RDF></metadata><defs
     id="defs6"><clipPath
       id="clipPath18"
       clipPathUnits="userSpaceOnUse"><path
         id="path16"
         d="M 0,97 H 70.039 V 0 H 0 Z" /></clipPath></defs><g
     transform="matrix(1.3333333,0,0,-1.3333333,0,129.33333)"
     id="g10"><g
       id="g12"><g
         clip-path="url(#clipPath18)"
         id="g14"><g
           transform="translate(54.7998,97)"
           id="g20"><path
             id="path22"
             style="fill:#000000;fill-opacity:1;fill-rule:nonzero;stroke:none"
             d="M 0,0 H -0.399 C -1.1,-0.4 -1.5,-0.9 -1.8,-1.6 -2.399,-2.7 -2.8,-3.9 -3.1,-5 -3.3,-5.8 -3.8,-6.2 -4.6,-6.3 -6.899,-6.7 -8.6,-8 -9.8,-10 c -0.7,-1.3 -1.3,-2.6 -1.8,-3.9 -1.4,-3.7 -2.5,-7.5 -3.799,-11.2 C -16.1,-27 -16.2,-27 -18.1,-27 c -2.3,0 -2.1,0.4 -2.1,-2.1 0,-0.8 0.2,-1.2 1.1,-1.2 0.3,0 0.701,0.1 0.8,-0.2 0.1,-0.3 -0.2,-0.5 -0.4,-0.7 -1.2,-1.3 -2.7,-2 -4.3,-2.4 -1.9,-0.5 -3.8,-0.9 -5.7,-1.5 -4.7,-1.6 -9.1,-3.8 -12.6,-7.6 -2.1,-2.3 -3.5,-5 -4.7,-7.8 -3.8,-8.7 -5.6,-17.8 -7,-27 -0.6,-4.3 -1.1,-8.6 -1.5,-13 -0.1,-2.2 -0.3,-4.3 -0.3,-6.5 h 33.3 c 0.1,0.5 -0.1,0.9 -0.2,1.3 -0.7,1.8 -2.1,2.7 -3.8,3.1 -0.7,0.2 -0.8,0.4 -0.4,0.9 0.7,0.9 1.2,2 1.6,3.1 1.6,4.8 2.3,9.8 3.1,14.8 0.6,3.8 1.5,7.4 3.4,10.8 1.5,2.5 3.3,4.6 5.6,6.4 0.801,0.6 0.9,0.6 1,-0.4 0.1,-0.7 0.1,-1.4 0.2,-2.2 0.3,-4.7 0.3,-9.5 -0.2,-14.2 -0.3,-3.7 -0.5,-7.4 -0.199,-11 C -11,-88.7 -10.2,-92.8 -9.2,-97 H 4.101 C 3.8,-94.8 2,-93 -0.1,-92.6 c -1.299,0.2 -2.5,0.1 -3.799,-0.2 -0.601,-0.1 -0.801,0 -0.901,0.6 -0.4,5.3 -0.099,10.6 1,15.8 1.3,6 2.401,12.1 3.1,18.2 0.301,2.5 1,4.8 2.301,7 1.199,2.1 2.199,4.3 3.399,6.5 0.9,1.7 1.101,3.4 0.4,5.2 -0.299,0.7 -0.5,1.4 -0.9,2.1 -1,2 -2,3.9 -2.899,5.9 -0.5,1 -0.401,1.1 0.699,1.1 1.6,0 1.6,0 1.7,1.6 v 0.7 c 0,0.7 -0.3,1.1 -1,1 H 1.5 c -0.7,0 -0.899,0.3 -0.7,1 0.6,2.3 2.801,4.1 5.1,4.4 2.201,0.3 4.4,0 6.6,-0.4 0.601,-0.1 1,0 1.3,0.6 0.4,1 0.801,2 1.301,3 C 15.3,-18.1 15.3,-17.7 15,-17.4 11.8,-13.2 8.3,-9.4 3.601,-7 3.101,-6.7 2.8,-6.4 2.7,-5.9 2.4,-4.5 2,-3.1 1.4,-1.7 1.101,-1 0.8,-0.4 0,0" /></g></g></g></g></svg>