<?xml version="1.0" encoding="UTF-8" standalone="no"?>
<svg
   xmlns:dc="http://purl.org/dc/elements/1.1/"
   xmlns:cc="http://creativecommons.org/ns#"
   xmlns:rdf="http://www.w3.org/1999/02/22-rdf-syntax-ns#"
   xmlns:svg="http://www.w3.org/2000/svg"
   xmlns="http://www.w3.org/2000/svg"
   viewBox="0 0 178.76534 74.875732"
   height="74.875732"
   width="178.76534"
   xml:space="preserve"
   id="svg2"
   version="1.1"><metadata
     id="metadata8"><rdf:RDF><cc:Work
         rdf:about=""><dc:format>image/svg+xml</dc:format><dc:type
           rdf:resource="http://purl.org/dc/dcmitype/StillImage" /></cc:Work></rdf:RDF></metadata><defs
     id="defs6"><clipPath
       id="clipPath18"
       clipPathUnits="userSpaceOnUse"><path
         id="path16"
         d="M 0,56.157 H 134.074 V 0 H 0 Z" /></clipPath></defs><g
     transform="matrix(1.3333333,0,0,-1.3333333,0,74.875733)"
     id="g10"><g
       id="g12"><g
         clip-path="url(#clipPath18)"
         id="g14"><g
           transform="translate(123.1178,50.4002)"
           id="g20"><path
             id="path22"
             style="fill:#000000;fill-opacity:1;fill-rule:nonzero;stroke:none"
             d="M 0,0 C 1.2,1.9 2.7,3.4 4.5,4.6 5.5,5.3 6.101,5.3 6.7,4 7.5,2.1 8.2,0.1 7.601,-2 7.4,-2.8 7.5,-3.4 8,-4.1 8.601,-4.9 9.101,-5.7 9.601,-6.4 10.9,-8.3 11.4,-10.3 10.5,-12.6 c -0.399,-1 -0.399,-2 -0.199,-3.1 0.199,-1 0.199,-2 0,-3 -0.301,-1.6 -1.101,-2.7 -2.7,-3.2 -1.3,-0.3 -2.401,-0.9 -3.201,-2 -0.2,-0.3 -0.5,-0.5 -0.9,-0.5 -1.199,-0.201 -4.199,2.5 -4.199,3.7 v 0.6 c 0.099,3.6 -0.101,3.9 -3.401,5.4 -0.7,0.3 -1.299,0.6 -1.799,1.2 -0.601,0.8 -1.401,0.7 -2.3,0.4 C -9,-13.5 -9.6,-14 -9.5,-15 c 0.301,-2.4 0.4,-4.8 0.301,-7.3 0,-0.3 0.099,-0.6 0.199,-0.8 3.101,-4.501 4.301,-9.8 5.801,-14.9 1.199,-3.9 3.399,-6 7.399,-6.3 0.601,0 1.3,-0.2 1.901,-0.301 C 7.9,-44.9 9,-46.101 9.5,-47.8 c 0.7,-2.1 0.301,-2.6 -1.8,-2.6 H 1.2 c -0.899,0 -1.599,0.2 -2.3,0.799 -1,1 -2.2,1.401 -3.4,2 -1.3,0.601 -2.6,1.301 -3.399,2.601 -1.101,1.7 -2.601,3.1 -4,4.5 -2.8,2.899 -5.8,5.7 -8.401,8.7 -1.899,2.199 -3.2,4.6 -3.2,7.6 0,0.9 -0.199,1.3 -1.199,0.9 -0.301,-0.2 -0.7,-0.301 -1,-0.301 -2.801,0 -4.2,-1.699 -5.2,-4.199 -0.901,-2.1 -2.101,-4.1 -3.201,-6.2 -0.5,-1.101 -1,-2.601 -1,-4.2 0,-2.401 0.6,-3.2 2.8,-4 1.401,-0.5 2.7,-1 3.401,-2.401 0.799,-1.599 0.599,-2 -1.101,-2.099 h -6.8 c -0.899,0 -1.5,0.3 -1.899,1.099 -0.601,1 -1.2,2 -1.801,3 -1,1.701 -1.399,3.401 -0.699,5.401 0.599,1.7 0.3,3.599 0.099,5.3 -0.4,2.6 0,4.9 1.701,7 0.599,0.7 0.599,1 -0.401,1.2 -4.099,0.8 -8,2.3 -11.8,4.1 0,0 -0.099,0 -0.099,0.1 -3.2,1.2 -3.801,1 -4.7,-2.3 -0.801,-2.801 -1.601,-5.6 -2.201,-8.5 -0.7,-3.2 0.1,-6.2 1.1,-9.2 0.4,-1.2 1.601,-1.101 2.5,-1.4 2,-0.6 3.7,-1.4 4.5,-3.5 0.7,-1.6 0.601,-1.8 -1.1,-1.8 -1.7,0 -3.4,0.099 -5.2,0 -1.599,-0.1 -2.8,0.5 -4.2,1.4 -4.8,3.199 -6.2,8.1 -6.6,13.4 -0.2,3.299 -2,5.9 -4.1,8.4 -0.4,0.5 -0.8,0.7 -1.4,0.3 -2.1,-1.3 -4.5,-2.1 -6.7,-3 -4.8,-1.8 -9,-4.6 -12.2,-8.8 -1.2,-1.5 -1.899,-3.2 -2.2,-5.101 -0.3,-1.799 0.2,-2.599 2,-3.099 1.9,-0.6 2.7,-1.5 2.9,-3.401 0.1,-0.799 -0.2,-1.199 -1,-1.199 h -8.099 c -0.601,0 -1,0.4 -1.301,0.8 -1.3,1.6 -1.9,3.5 -1.9,5.5 -0.1,3.5 0.3,6.899 0.9,10.3 0.4,2.099 1.4,3.8 3.4,4.8 5.901,2.8 9,8.1 11.8,13.6 0.601,1.1 0.101,1.3 -0.899,1.2 -2.901,-0.3 -5.401,-1.6 -7.701,-3.2 -3,-2.1 -5.7,-4.6 -8.299,-7.1 -2.901,-2.701 -6.201,-4.6 -10.301,-4.9 -7.3,-0.4 -10.699,3.7 -10.4,10.3 0.1,2.3 0.9,4.4 2.4,6.1 1.2,1.3 2.6,2 4.5,1.5 1.5,-0.4 1.9,-1.2 1.301,-2.7 -0.301,-0.6 -0.701,-1.1 -1,-1.7 -0.401,-0.6 -0.801,-1.3 -1,-2 -1.101,-3 0.399,-5.1 3.5,-5.4 3.299,-0.3 6,1.1 8.5,3.1 3,2.4 5.699,5.2 8,8.3 3.699,4.8 8.5,7.3 14.399,8.1 2.3,0.3 4.3,1.3 6.5,1.9 4.101,1.2 8.3,1.9 12.7,1.8 2,-0.1 3.901,0.3 5.8,1.1 4.9,2 10,2 15.101,1 4,-0.8 8,-1.8 11.899,-2.8 2.2,-0.5 4.7,-0.3 7,0.2 4.4,1 8.9,1.9 13.4,2 3,0.1 5.901,-0.4 8.6,-1.7 C 0.5,1.9 0.5,1.9 0,0" /></g></g></g></g></svg>