<?xml version="1.0" encoding="UTF-8" standalone="no"?>
<svg
   xmlns:dc="http://purl.org/dc/elements/1.1/"
   xmlns:cc="http://creativecommons.org/ns#"
   xmlns:rdf="http://www.w3.org/1999/02/22-rdf-syntax-ns#"
   xmlns:svg="http://www.w3.org/2000/svg"
   xmlns="http://www.w3.org/2000/svg"
   viewBox="0 0 18.023733 36.998665"
   height="36.998665"
   width="18.023733"
   xml:space="preserve"
   id="svg2"
   version="1.1"><metadata
     id="metadata8"><rdf:RDF><cc:Work
         rdf:about=""><dc:format>image/svg+xml</dc:format><dc:type
           rdf:resource="http://purl.org/dc/dcmitype/StillImage" /></cc:Work></rdf:RDF></metadata><defs
     id="defs6"><clipPath
       id="clipPath18"
       clipPathUnits="userSpaceOnUse"><path
         id="path16"
         d="M 0,27.749 H 13.518 V 0 H 0 Z" /></clipPath></defs><g
     transform="matrix(1.3333333,0,0,-1.3333333,0,36.998666)"
     id="g10"><g
       id="g12"><g
         clip-path="url(#clipPath18)"
         id="g14"><g
           transform="translate(4.2148,1.4996)"
           id="g20"><path
             id="path22"
             style="fill:#444444;fill-opacity:1;fill-rule:nonzero;stroke:none"
             d="m 0,0 h 3.816 v 12.904 h 3.957 v 3.374 H 3.82 l -0.016,0.734 c -0.044,2.04 0.003,3.784 1.008,4.46 l 0.189,0.127 H 7.802 V 24.75 H 4.563 C 3.006,24.658 1.852,24.168 1.078,23.253 0.037,22.022 -0.332,19.956 -0.021,17.109 L 0.071,16.277 H -2.715 V 12.902 H 0 Z M 5.316,-1.5 H -1.5 v 12.904 h -2.715 v 6.374 h 2.629 c -0.202,2.888 0.298,5 1.519,6.444 1.039,1.229 2.583,1.911 4.588,2.027 L 9.303,26.25 V 20.099 H 5.548 C 5.382,19.784 5.297,19.006 5.296,17.778 H 9.274 V 11.403 H 5.316 Z" /></g></g></g></g></svg>
