<?xml version="1.0" encoding="UTF-8" standalone="no"?>
<svg
   xmlns:dc="http://purl.org/dc/elements/1.1/"
   xmlns:cc="http://creativecommons.org/ns#"
   xmlns:rdf="http://www.w3.org/1999/02/22-rdf-syntax-ns#"
   xmlns:svg="http://www.w3.org/2000/svg"
   xmlns="http://www.w3.org/2000/svg"
   viewBox="0 0 170.39959 31.333332"
   height="31.333332"
   width="170.3996"
   xml:space="preserve"
   id="svg2"
   version="1.1"><metadata
     id="metadata8"><rdf:RDF><cc:Work
         rdf:about=""><dc:format>image/svg+xml</dc:format><dc:type
           rdf:resource="http://purl.org/dc/dcmitype/StillImage" /></cc:Work></rdf:RDF></metadata><defs
     id="defs6"><clipPath
       id="clipPath18"
       clipPathUnits="userSpaceOnUse"><path
         id="path16"
         d="M 0,23.5 H 127.8 V 0 H 0 Z" /></clipPath></defs><g
     transform="matrix(1.3333333,0,0,-1.3333333,-1.3333333e-4,31.333333)"
     id="g10"><g
       id="g12"><g
         clip-path="url(#clipPath18)"
         id="g14"><g
           transform="translate(1.6001,2)"
           id="g20"><path
             id="path22"
             style="fill:#111111;fill-opacity:1;fill-rule:nonzero;stroke:none"
             d="m 0,0 c -1,1.3 -1.6,3.2 -1.6,5.6 v 8.3 c 0,2.5 0.5,4.4 1.5,5.7 1.1,1.3 2.8,1.9 5.3,1.9 2.4,0 4.1,-0.6 5.1,-1.7 1,-1.1 1.5,-2.8 1.5,-4.9 v -2 H 6.9 v 2.3 c 0,0.9 -0.1,1.6 -0.3,2 C 6.4,17.6 6,18 5.2,18 4.5,18 4,17.8 3.8,17.3 3.6,16.8 3.5,16 3.5,15.1 V 4.4 C 3.5,3.5 3.6,2.8 3.9,2.3 4.1,1.8 4.6,1.6 5.3,1.6 6,1.6 6.4,1.8 6.6,2.3 6.8,2.8 6.9,3.5 6.9,4.4 v 2.4 h 4.9 v -2 C 11.8,2.7 11.3,1 10.3,-0.2 9.3,-1.4 7.6,-2 5.2,-2 2.8,-1.9 1,-1.3 0,0" /></g><g
           transform="translate(23.3999,8.2002)"
           id="g24"><path
             id="path26"
             style="fill:#111111;fill-opacity:1;fill-rule:nonzero;stroke:none"
             d="M 0,0 -1.2,8.9 -2.4,0 Z M -4.1,15 H 1.6 L 5.8,-7.8 H 1.2 L 0.4,-3 h -3.3 l -0.8,-4.8 h -4.7 z" /></g><g
           transform="translate(32.7002,19.3999)"
           id="g28"><path
             id="path30"
             style="fill:#111111;fill-opacity:1;fill-rule:nonzero;stroke:none"
             d="M 0,0 H -3.4 V 3.8 H 8.5 V 0.1 H 5.1 V -19 H 0 Z" /></g><g
           transform="translate(50.2998,23.2002)"
           id="g32"><path
             id="path34"
             style="fill:#111111;fill-opacity:1;fill-rule:nonzero;stroke:none"
             d="M 0,0 H 8.8 V -2.4 H 3.1 v -7.5 h 4.6 v -2.3 H 3.1 v -8.401 H 8.8 V -22.9 H -0.1 V 0 Z" /></g><g
           transform="translate(61.7002,23.2002)"
           id="g36"><path
             id="path38"
             style="fill:#111111;fill-opacity:1;fill-rule:nonzero;stroke:none"
             d="M 0,0 H 2.2 L 8.7,-15.101 V 0 h 2.6 v -22.8 h -2 L 2.7,-7.2 V -22.8 H 0 Z" /></g><g
           transform="translate(76,23.2002)"
           id="g40"><path
             id="path42"
             style="fill:#111111;fill-opacity:1;fill-rule:nonzero;stroke:none"
             d="M 0,0 H 8.8 V -2.4 H 3.1 v -7.5 h 4.6 v -2.3 H 3.1 v -8.401 H 8.8 V -22.9 H 0 Z" /></g><g
           transform="translate(91.7998,13.3999)"
           id="g44"><path
             id="path46"
             style="fill:#111111;fill-opacity:1;fill-rule:nonzero;stroke:none"
             d="M 0,0 C 1.4,0 2.3,0.3 2.9,0.8 3.5,1.3 3.8,2.3 3.8,3.8 3.8,4.7 3.7,5.5 3.5,6 3.3,6.5 2.9,6.9 2.4,7.2 1.9,7.5 1.101,7.6 0.2,7.6 H -1.2 V 0.1 H 0 Z M -4.399,9.8 H 0.2 C 2.5,9.8 4.2,9.3 5.3,8.4 6.4,7.5 6.9,5.9 6.9,3.8 6.9,0.9 6,-0.9 4.101,-1.5 L 7.3,-12.9 H 4.2 l -3,10.7 H -1.3 V -12.9 H -4.5 V 9.8 Z" /></g><g
           transform="translate(102.7002,2.0996)"
           id="g48"><path
             id="path50"
             style="fill:#111111;fill-opacity:1;fill-rule:nonzero;stroke:none"
             d="M 0,0 C -0.9,1.301 -1.4,3.2 -1.4,5.801 V 13.4 c 0,1.8 0.2,3.201 0.5,4.3 0.4,1.1 1,2 1.9,2.6 0.899,0.6 2.1,0.9 3.7,0.9 2.1,0 3.6,-0.5 4.5,-1.599 0.9,-1.101 1.4,-2.701 1.4,-5 V 13.8 h -3 v 0.7 C 7.6,15.601 7.5,16.4 7.399,17 7.3,17.601 7,18 6.6,18.3 6.2,18.601 5.6,18.8 4.7,18.8 3.8,18.8 3.2,18.601 2.7,18.2 2.2,17.8 2,17.3 1.899,16.601 1.8,15.9 1.7,15 1.7,13.9 V 5.4 C 1.7,3.7 1.899,2.4 2.3,1.601 2.7,0.801 3.5,0.5 4.7,0.5 c 1.199,0 2,0.4 2.4,1.2 0.4,0.8 0.7,2.101 0.7,4 V 7.301 H 4.899 v 2.3 H 10.7 v -11.3 h -2 L 8.399,0.9 C 7.7,-1 6.3,-2 4.3,-2 2.399,-2 0.899,-1.3 0,0" /></g><g
           transform="translate(119.7998,8.4004)"
           id="g52"><path
             id="path54"
             style="fill:#111111;fill-opacity:1;fill-rule:nonzero;stroke:none"
             d="m 0,0 -4.899,14.7 h 3 L 1.601,3.7 5,14.7 H 8 L 3.101,0 v -8 h -3 v 8 z" /></g></g></g></g></svg>