<?xml version="1.0" encoding="UTF-8" standalone="no"?>
<svg
   xmlns:dc="http://purl.org/dc/elements/1.1/"
   xmlns:cc="http://creativecommons.org/ns#"
   xmlns:rdf="http://www.w3.org/1999/02/22-rdf-syntax-ns#"
   xmlns:svg="http://www.w3.org/2000/svg"
   xmlns="http://www.w3.org/2000/svg"
   viewBox="0 0 30.649332 30.666668"
   height="30.666668"
   width="30.649332"
   xml:space="preserve"
   id="svg2"
   version="1.1"><metadata
     id="metadata8"><rdf:RDF><cc:Work
         rdf:about=""><dc:format>image/svg+xml</dc:format><dc:type
           rdf:resource="http://purl.org/dc/dcmitype/StillImage" /></cc:Work></rdf:RDF></metadata><defs
     id="defs6"><clipPath
       id="clipPath18"
       clipPathUnits="userSpaceOnUse"><path
         id="path16"
         d="M 0,23 H 22.987 V 0 H 0 Z" /></clipPath></defs><g
     transform="matrix(1.3333333,0,0,-1.3333333,0,30.666667)"
     id="g10"><g
       id="g12"><g
         clip-path="url(#clipPath18)"
         id="g14"><g
           transform="translate(16.989,23.0001)"
           id="g20"><path
             id="path22"
             style="fill:#68b738;fill-opacity:1;fill-rule:nonzero;stroke:none"
             d="m 0,0 h -10.992 c -3.3,0 -5.997,-2.699 -5.997,-6 v -11.001 c 0,-3.298 2.697,-5.999 5.997,-5.999 H 0.003 c 3.296,0 5.995,2.701 5.995,6 V -6 C 5.998,-2.699 3.299,0 0,0 m 0,-1.499 c 2.48,0 4.498,-2.02 4.498,-4.501 v -11 c 0,-2.481 -2.018,-4.5 -4.498,-4.5 h -10.992 c -2.48,0 -4.498,2.019 -4.498,4.5 v 11 c 0,2.481 2.018,4.5 4.498,4.5 H 0" /></g><g
           transform="translate(11.4929,17.422)"
           id="g24"><path
             id="path26"
             style="fill:#68b738;fill-opacity:1;fill-rule:nonzero;stroke:none"
             d="m 0,0 c -3.273,0 -5.928,-2.654 -5.928,-5.928 0,-3.274 2.654,-5.927 5.928,-5.927 3.274,0 5.926,2.653 5.926,5.927 C 5.926,-2.654 3.274,0 0,0 m 0,-1.5 c 2.44,0 4.429,-1.985 4.429,-4.428 0,-2.44 -1.989,-4.43 -4.429,-4.43 -2.443,0 -4.428,1.989 -4.428,4.43 0,2.443 1.985,4.428 4.428,4.428" /></g><g
           transform="translate(17.6335,18.962)"
           id="g28"><path
             id="path30"
             style="fill:#68b738;fill-opacity:1;fill-rule:nonzero;stroke:none"
             d="M 0,0 C 0.74,0 1.341,-0.601 1.341,-1.341 1.341,-2.082 0.74,-2.682 0,-2.682 c -0.741,0 -1.342,0.6 -1.342,1.341 C -1.342,-0.601 -0.741,0 0,0" /></g></g></g></g></svg>
