<?xml version="1.0" encoding="UTF-8" standalone="no"?>
<svg
   xmlns:dc="http://purl.org/dc/elements/1.1/"
   xmlns:cc="http://creativecommons.org/ns#"
   xmlns:rdf="http://www.w3.org/1999/02/22-rdf-syntax-ns#"
   xmlns:svg="http://www.w3.org/2000/svg"
   xmlns="http://www.w3.org/2000/svg"
   viewBox="0 0 269.32001 79.307198"
   height="79.307198"
   width="269.32001"
   xml:space="preserve"
   id="svg2"
   version="1.1"><metadata
     id="metadata8"><rdf:RDF><cc:Work
         rdf:about=""><dc:format>image/svg+xml</dc:format><dc:type
           rdf:resource="http://purl.org/dc/dcmitype/StillImage" /></cc:Work></rdf:RDF></metadata><defs
     id="defs6"><clipPath
       id="clipPath18"
       clipPathUnits="userSpaceOnUse"><path
         id="path16"
         d="M 0,59.48 H 201.99 V 0 H 0 Z" /></clipPath></defs><g
     transform="matrix(1.3333333,0,0,-1.3333333,0,79.3072)"
     id="g10"><g
       id="g12"><g
         clip-path="url(#clipPath18)"
         id="g14"><g
           transform="translate(58.4058,31.7)"
           id="g20"><path
             id="path22"
             style="fill:#fdc305;fill-opacity:1;fill-rule:nonzero;stroke:none"
             d="m 0,0 c -0.434,-0.434 -1.349,-0.723 -1.494,0.578 -0.144,1.301 -0.193,2.217 -0.193,2.217 0,0 -1.927,3.421 -2.65,3.47 -0.723,0.047 -5.831,-3.47 -7.18,-4.964 -1.165,-1.289 -1.398,-1.205 -1.398,-3.47 0,-1.713 0.221,-8.166 0.099,-13.108 0,0 -2.171,-0.578 -8.146,-2.168 -5.976,-1.59 -7.807,-1.783 -7.807,-1.783 l -1.012,5.831 h -0.002 c -0.006,10e-4 -0.019,0.004 -0.04,0.007 -0.001,0 -0.002,0 -0.002,0.001 -0.01,10e-4 -0.022,0.003 -0.035,0.005 -0.015,0.002 -0.031,0.004 -0.049,0.006 l -2.57,13.185 c 0,0 -3.808,1.446 -5.205,1.831 -1.398,0.386 -2.265,0.675 -4.048,-0.626 -1.783,-1.302 -1.735,-3.855 -1.735,-3.855 0,0 0.434,-0.964 0.482,-1.446 0.048,-0.482 -1.205,-0.434 -2.024,-0.434 -0.819,0 -0.916,1.446 -0.289,3.133 0.626,1.686 1.927,3.71 1.927,3.71 0,0 1.205,2.265 2.073,2.892 0,0 0.144,0.337 1.253,0.24 1.108,-0.096 7.276,-0.433 7.276,-0.433 l 0.054,2.275 c 6.692,0.912 13.489,1.374 20.244,1.336 -0.01,-0.608 -0.029,-1.218 -0.058,-1.828 0,0 4.385,2.024 8.144,1.976 0,0 0.434,0.048 0.771,-0.386 C -3.277,7.758 -1.205,5.204 -0.963,4.819 -0.723,4.433 0.241,3.084 0.868,1.783 0.868,1.783 0.434,0.434 0,0 m 1.479,3.786 c -5.453,13.049 -20.451,19.209 -33.5,13.756 -13.05,-5.451 -19.209,-20.45 -13.757,-33.5 3.586,-8.584 11.303,-14.186 19.879,-15.463 -0.58,2.09 -1.163,4.4 -1.692,6.855 1.499,-0.991 3.089,-1.805 4.77,-2.555 -0.007,-0.004 -0.014,-0.006 -0.021,-0.01 0,0 0.119,-2.157 0.28,-4.566 1.773,-0.029 3.564,0.127 5.347,0.479 -0.043,0.157 -0.043,0.405 0.011,0.761 0.287,1.863 1.093,5.237 1.249,7.408 1.129,1.064 2.138,2.326 2.9,3.713 -0.002,-0.012 -0.003,-0.025 -0.004,-0.037 -0.018,-0.143 -0.036,-0.288 -0.055,-0.433 -0.554,-4.265 -1.704,-8.814 -2.403,-10.071 -0.243,-0.438 -0.546,-0.859 -0.83,-1.154 1.368,0.321 2.729,0.757 4.068,1.317 13.05,5.452 19.209,20.45 13.758,33.5" /></g><g
           transform="translate(56.4551,37.8074)"
           id="g24"><path
             id="path26"
             style="fill:#f06351;fill-opacity:1;fill-rule:nonzero;stroke:none"
             d="m 0,0 c 0.474,-0.598 0.887,-1.129 0.987,-1.289 0.241,-0.385 1.205,-1.734 1.831,-3.036 0,0 -0.433,-1.349 -0.867,-1.782 -0.434,-0.435 -1.349,-0.724 -1.494,0.578 -0.145,1.301 -0.193,2.216 -0.193,2.216 0,0 -1.928,3.422 -2.65,3.47 -0.723,0.048 -5.831,-3.47 -7.18,-4.964 -1.165,-1.289 -1.398,-1.204 -1.398,-3.469 0,-1.502 0.17,-6.65 0.129,-11.226 1.81,-0.209 4.466,-0.71 5.268,-1.882 0,0 -0.289,7.18 7.807,3.422 0,0 0.289,9.782 11.469,7.276 0,0 -5.668,6.959 -13.709,10.686" /></g><g
           transform="translate(45.9346,40.1297)"
           id="g28"><path
             id="path30"
             style="fill:#f06351;fill-opacity:1;fill-rule:nonzero;stroke:none"
             d="m 0,0 c 0.146,8.514 -1.407,16.532 -1.407,16.532 0,0 -0.145,1.301 -0.868,0.241 -0.723,-1.06 -1.204,-3.951 -1.204,-3.951 -7.47,0.433 -12.819,-0.338 -12.819,-0.338 -0.819,2.747 -2.217,3.952 -2.891,3.663 -0.675,-0.289 -0.723,-3.325 -0.723,-3.325 L -20.244,-1.336 C -13.552,-0.424 -6.754,0.038 0,0" /></g><g
           transform="translate(45.3506,12.3636)"
           id="g32"><path
             id="path34"
             style="fill:#e55645;fill-opacity:1;fill-rule:nonzero;stroke:none"
             d="m 0,0 c 0.126,1.065 0.2,2.485 0.239,4.06 0,0 -2.171,-0.579 -8.146,-2.168 -5.976,-1.59 -7.807,-1.784 -7.807,-1.784 l 1.109,-5.011 c 0.022,-0.11 0.046,-0.218 0.069,-0.326 1.499,-0.992 3.089,-1.805 4.77,-2.555 4.372,2.164 6.87,4.134 6.87,4.134 C -2.897,-3.671 -2.898,-3.691 -2.9,-3.713 -1.771,-2.648 -0.762,-1.387 0,0" /></g><g
           transform="translate(31.998,43.2654)"
           id="g36"><path
             id="path38"
             style="fill:#000000;fill-opacity:1;fill-rule:nonzero;stroke:none"
             d="m 0,0 c -0.046,0.091 1.026,-0.684 1.412,-0.924 0.385,-0.242 0.612,-0.426 0.612,-0.594 0,-0.169 -0.265,-0.337 -0.627,-0.337 -0.361,0 -0.915,0.12 -0.963,0.265 0,0 0.602,0.024 0.94,0.024 H 1.663 C 1.663,-1.566 0.265,-0.53 0,0" /></g><g
           transform="translate(39.5005,43.1516)"
           id="g40"><path
             id="path42"
             style="fill:#000000;fill-opacity:1;fill-rule:nonzero;stroke:none"
             d="m 0,0 c 0,0 -1.051,-1.279 -1.09,-1.338 -0.039,-0.059 -0.167,-0.343 0.186,-0.294 0.352,0.049 1.115,0.225 1.223,0.284 0.107,0.059 0.07,0.197 -0.118,0.176 -0.205,-0.022 -0.685,-0.049 -0.988,-0.107 l 0.844,1.265 c 0,0 0.027,0.119 -0.057,0.014" /></g><g
           transform="translate(36.356,37.0369)"
           id="g44"><path
             id="path46"
             style="fill:#000000;fill-opacity:1;fill-rule:nonzero;stroke:none"
             d="M 0,0 C 0,0 0.813,0.353 1.093,1.012 1.374,1.671 1.13,1.928 0.651,1.994 0.172,2.06 -0.695,2.024 -1.093,1.653 -1.491,1.283 -1.437,0.921 -1.147,0.696 -0.858,0.47 -0.298,0.09 0,0" /></g><g
           transform="translate(35.9497,35.781)"
           id="g48"><path
             id="path50"
             style="fill:#f06351;fill-opacity:1;fill-rule:nonzero;stroke:none"
             d="m 0,0 c 0,0 -0.181,-0.374 -0.46,-0.597 -0.245,-0.194 -0.57,-0.364 -1.022,-0.388 -0.641,-0.033 -1.06,0.17 -1.457,0.447 -0.204,0.142 -0.397,0.256 -0.535,0.444 -0.157,0.182 -0.357,0.254 -0.357,0.254 0,0 0.75,-4.116 2.576,-4.766 1.825,-0.651 2.151,0.752 2.209,1.137 0.048,0.327 0,2.091 -0.824,3.237 C 0.116,0.072 0.1,-0.132 0,0" /></g><g
           transform="translate(34.3022,34.6433)"
           id="g52"><path
             id="path54"
             style="fill:#000000;fill-opacity:1;fill-rule:nonzero;stroke:none"
             d="m 0,0 h -0.016 c -1.297,0.011 -2.3,1.366 -2.342,1.424 -0.047,0.064 -0.033,0.155 0.032,0.202 0.064,0.047 0.155,0.033 0.201,-0.032 0.01,-0.012 0.961,-1.296 2.113,-1.305 H 0 c 0.586,0 1.136,0.335 1.634,0.994 L 1.777,1.472 1.879,1.258 C 1.883,1.251 2.254,0.5 2.872,0.461 3.37,0.43 3.929,0.874 4.494,1.745 4.538,1.812 4.627,1.831 4.694,1.787 4.761,1.743 4.78,1.654 4.736,1.587 4.101,0.609 3.467,0.134 2.852,0.173 2.287,0.209 1.907,0.669 1.73,0.94 1.209,0.316 0.627,0 0,0" /></g><g
           transform="translate(32.7954,23.4876)"
           id="g56"><path
             id="path58"
             style="fill:#fdc305;fill-opacity:1;fill-rule:nonzero;stroke:none"
             d="M 0,0 C -0.798,1.911 0.104,4.107 2.015,4.906 3.926,5.704 6.122,4.802 6.92,2.891 7.719,0.98 6.817,-1.217 4.906,-2.015 2.995,-2.813 0.798,-1.911 0,0" /></g><g
           transform="translate(33.8447,24.1536)"
           id="g60"><path
             id="path62"
             style="fill:#111111;fill-opacity:1;fill-rule:nonzero;stroke:none"
             d="M 0,0 4.131,5.408 3.325,1.389 5.292,2.21 1.16,-3.198 1.967,0.822 Z m 7.388,3.823 -3.133,-1.309 1.15,5.636 -7.502,-9.762 3.134,1.308 -1.15,-5.635 z" /></g><g
           transform="translate(31.4004,26.305)"
           id="g64"><path
             id="path66"
             style="fill:#111111;fill-opacity:1;fill-rule:nonzero;stroke:none"
             d="M 0,0 C -0.239,0.572 0.031,1.23 0.604,1.47 1.176,1.708 1.834,1.438 2.073,0.866 2.313,0.293 2.042,-0.364 1.47,-0.604 0.897,-0.843 0.239,-0.573 0,0" /></g><g
           transform="translate(38.2256,22.0393)"
           id="g68"><path
             id="path70"
             style="fill:#111111;fill-opacity:1;fill-rule:nonzero;stroke:none"
             d="M 0,0 C -0.169,0.405 0.022,0.87 0.427,1.039 0.832,1.208 1.297,1.017 1.466,0.612 1.635,0.208 1.444,-0.258 1.039,-0.427 0.634,-0.596 0.169,-0.404 0,0" /></g><g
           transform="translate(39.6011,23.948)"
           id="g72"><path
             id="path74"
             style="fill:#111111;fill-opacity:1;fill-rule:nonzero;stroke:none"
             d="M 0,0 C -0.074,0.177 0.01,0.38 0.187,0.455 0.364,0.529 0.568,0.445 0.642,0.268 0.716,0.091 0.632,-0.113 0.455,-0.187 0.278,-0.261 0.074,-0.177 0,0" /></g><g
           transform="translate(45.8765,38.3206)"
           id="g76"><path
             id="path78"
             style="fill:#f06351;fill-opacity:1;fill-rule:nonzero;stroke:none"
             d="m 0,0 c 0,0 -2.554,-2.254 -5.084,-5.212 -2.53,-2.958 -5.313,-4.895 -5.313,-4.895 -0.217,0.528 -1.626,1.514 -1.626,1.514 0,0 -3.144,2.149 -5.205,3.839 -1.184,0.971 -2.355,2.175 -3.138,3.024 -0.293,0.015 -1.07,0.057 -2.014,0.109 4.711,-6.998 12.019,-8.838 12.019,-8.838 0.868,0.141 3.289,1.866 5.096,3.275 1.807,1.409 4.771,4.543 5.964,5.916 0.603,0.695 0.947,1.426 1.14,1.978 C 0.726,0.326 0,0 0,0" /></g><g
           transform="translate(65.2178,55.9822)"
           id="g80"><path
             id="path82"
             style="fill:#fdc305;fill-opacity:1;fill-rule:nonzero;stroke:none"
             d="m 0,0 -8.455,-9.444 -1.218,1.998 8.148,10.944 z" /></g><g
           transform="translate(62.6455,42.2224)"
           id="g84"><path
             id="path86"
             style="fill:#fdc305;fill-opacity:1;fill-rule:nonzero;stroke:none"
             d="M 0,0 5.55,4.111 4.761,7.845 -0.641,3.033 Z" /></g><g
           transform="translate(59.9238,10.1145)"
           id="g88"><path
             id="path90"
             style="fill:#fdc305;fill-opacity:1;fill-rule:nonzero;stroke:none"
             d="M 0,0 6.129,-3.186 9.139,-0.84 2.445,1.904 Z" /></g><g
           transform="translate(1.9536,53.5052)"
           id="g92"><path
             id="path94"
             style="fill:#fdc305;fill-opacity:1;fill-rule:nonzero;stroke:none"
             d="m 0,0 3.064,3.361 9.295,-8.999 -1.226,-2.277 z" /></g><g
           transform="translate(7.3818,43.1971)"
           id="g96"><path
             id="path98"
             style="fill:#fdc305;fill-opacity:1;fill-rule:nonzero;stroke:none"
             d="m 0,0 -4.702,3.129 -2.405,-3.86 5.155,-2.402 z" /></g><g
           transform="translate(13.9072,6.929)"
           id="g100"><path
             id="path102"
             style="fill:#fdc305;fill-opacity:1;fill-rule:nonzero;stroke:none"
             d="m 0,0 -4.548,-3.35 2.806,-3.579 4.019,4.024 z" /></g><g
           transform="translate(25.9263,31.5071)"
           id="g104"><path
             id="path106"
             style="fill:#f06351;fill-opacity:1;fill-rule:nonzero;stroke:none"
             d="m 0,0 c 0,0 -3.807,1.446 -5.205,1.831 -1.397,0.386 -2.265,0.675 -4.047,-0.626 -1.784,-1.302 -1.735,-3.855 -1.735,-3.855 0,0 0.433,-0.964 0.482,-1.446 0.047,-0.482 -1.205,-0.434 -2.024,-0.434 -0.82,0 -0.916,1.446 -0.29,3.133 0.627,1.686 1.928,3.71 1.928,3.71 -5.445,-2.843 -15.035,-9.397 -15.035,-9.397 0,0 2.939,0.289 8.192,-0.241 5.253,-0.53 4.963,-4.674 4.963,-4.674 0,0 3.519,0.964 5.639,1.108 2.12,0.145 2.265,-2.121 2.265,-2.121 l 0.53,-3.854 c 0,0 0.482,0.626 2.65,2.361 1.862,1.489 3.886,1.361 4.385,1.301 0,0 10e-4,0 0,0 z" /></g><g
           transform="translate(85.6567,17.4456)"
           id="g108"><path
             id="path110"
             style="fill:#111111;fill-opacity:1;fill-rule:nonzero;stroke:none"
             d="m 0,0 c -0.932,1.199 -1.398,2.929 -1.398,5.19 v 7.507 c 0,2.312 0.462,4.06 1.385,5.242 0.924,1.182 2.507,1.773 4.751,1.773 2.139,0 3.654,-0.522 4.543,-1.566 0.888,-1.044 1.333,-2.542 1.333,-4.491 v -1.76 H 6.472 v 1.941 c 0,0.622 -0.031,1.122 -0.091,1.502 -0.061,0.379 -0.215,0.694 -0.466,0.945 -0.249,0.249 -0.634,0.375 -1.151,0.375 -0.777,0 -1.278,-0.251 -1.502,-0.751 -0.224,-0.501 -0.336,-1.234 -0.336,-2.2 V 4.181 c 0,-0.985 0.129,-1.717 0.388,-2.201 0.259,-0.483 0.742,-0.725 1.45,-0.725 0.725,0 1.19,0.246 1.398,0.738 0.206,0.492 0.31,1.221 0.31,2.188 v 2.045 h 4.142 V 4.491 c 0,-2.002 -0.44,-3.552 -1.32,-4.646 C 8.413,-1.252 6.895,-1.799 4.738,-1.799 2.511,-1.799 0.933,-1.2 0,0" /></g><g
           transform="translate(105.5635,23.179)"
           id="g112"><path
             id="path114"
             style="fill:#111111;fill-opacity:1;fill-rule:nonzero;stroke:none"
             d="M 0,0 -1.268,8.439 -2.51,0 Z M -3.649,13.72 H 1.087 L 5.126,-7.248 H 1.191 L 0.415,-2.64 h -3.313 l -0.803,-4.608 h -4.013 z" /></g><g
           transform="translate(113.7178,33.741)"
           id="g116"><path
             id="path118"
             style="fill:#111111;fill-opacity:1;fill-rule:nonzero;stroke:none"
             d="M 0,0 H -3.236 V 3.158 H 7.481 V 0 H 4.297 V -17.81 H 0 Z" /></g><g
           transform="translate(129.6123,36.8992)"
           id="g120"><path
             id="path122"
             style="fill:#444444;fill-opacity:1;fill-rule:nonzero;stroke:none"
             d="M 0,0 H 8.128 V -2.175 H 2.924 v -6.937 h 4.22 v -2.071 h -4.22 v -7.689 H 8.18 v -2.096 H 0 Z" /></g><g
           transform="translate(140.1484,36.8992)"
           id="g124"><path
             id="path126"
             style="fill:#444444;fill-opacity:1;fill-rule:nonzero;stroke:none"
             d="M 0,0 H 1.993 L 7.946,-13.927 V 0 H 10.38 V -20.968 H 8.515 L 2.484,-6.653 V -20.968 H 0 Z" /></g><g
           transform="translate(153.8154,36.8992)"
           id="g128"><path
             id="path130"
             style="fill:#444444;fill-opacity:1;fill-rule:nonzero;stroke:none"
             d="M 0,0 H 8.128 V -2.175 H 2.924 v -6.937 h 4.22 v -2.071 h -4.22 v -7.689 H 8.18 v -2.096 H 0 Z" /></g><g
           transform="translate(168.3896,27.865)"
           id="g132"><path
             id="path134"
             style="fill:#444444;fill-opacity:1;fill-rule:nonzero;stroke:none"
             d="M 0,0 C 1.26,0 2.161,0.25 2.705,0.751 3.248,1.251 3.521,2.157 3.521,3.469 3.521,4.332 3.425,5.008 3.235,5.5 3.045,5.993 2.708,6.355 2.227,6.588 1.743,6.821 1.061,6.937 0.182,6.937 H -1.114 V 0 Z m -4.038,9.034 h 4.22 c 2.123,0 3.679,-0.436 4.672,-1.307 0.992,-0.872 1.488,-2.291 1.488,-4.258 0,-2.692 -0.863,-4.323 -2.59,-4.893 l 2.977,-10.51 H 3.908 l -2.744,9.837 h -2.278 v -9.837 h -2.924 z" /></g><g
           transform="translate(178.666,17.472)"
           id="g136"><path
             id="path138"
             style="fill:#444444;fill-opacity:1;fill-rule:nonzero;stroke:none"
             d="m 0,0 c -0.845,1.199 -1.269,2.98 -1.269,5.345 v 7.015 c 0,1.622 0.169,2.955 0.505,4 0.337,1.043 0.914,1.846 1.736,2.407 0.818,0.561 1.945,0.841 3.378,0.841 1.932,0 3.326,-0.491 4.18,-1.475 C 9.385,17.149 9.812,15.604 9.812,13.5 V 12.723 H 7.067 v 0.647 c 0,1 -0.06,1.773 -0.179,2.317 C 6.766,16.23 6.511,16.64 6.123,16.916 5.734,17.192 5.16,17.331 4.401,17.331 3.591,17.331 2.985,17.145 2.59,16.773 2.192,16.403 1.937,15.907 1.826,15.286 1.713,14.665 1.657,13.836 1.657,12.8 V 5.034 C 1.657,3.43 1.852,2.277 2.239,1.578 2.629,0.88 3.375,0.53 4.479,0.53 c 1.086,0 1.834,0.379 2.24,1.139 0.405,0.759 0.608,1.977 0.608,3.649 V 6.769 H 4.661 v 2.07 H 9.967 V -1.541 H 8.13 L 7.844,0.866 C 7.188,-0.911 5.945,-1.8 4.116,-1.8 2.219,-1.8 0.847,-1.2 0,0" /></g><g
           transform="translate(194.6895,23.3347)"
           id="g140"><path
             id="path142"
             style="fill:#444444;fill-opacity:1;fill-rule:nonzero;stroke:none"
             d="m 0,0 -4.529,13.564 h 2.717 L 1.398,3.443 4.558,13.564 H 7.301 L 2.796,0 V -7.404 H 0 Z" /></g></g></g></g></svg>