<?xml version="1.0" encoding="UTF-8" standalone="no"?>
<svg
   xmlns:dc="http://purl.org/dc/elements/1.1/"
   xmlns:cc="http://creativecommons.org/ns#"
   xmlns:rdf="http://www.w3.org/1999/02/22-rdf-syntax-ns#"
   xmlns:svg="http://www.w3.org/2000/svg"
   xmlns="http://www.w3.org/2000/svg"
   viewBox="0 0 26.607201 26.566668"
   height="26.566668"
   width="26.607201"
   xml:space="preserve"
   id="svg2"
   version="1.1"><metadata
     id="metadata8"><rdf:RDF><cc:Work
         rdf:about=""><dc:format>image/svg+xml</dc:format><dc:type
           rdf:resource="http://purl.org/dc/dcmitype/StillImage" /></cc:Work></rdf:RDF></metadata><defs
     id="defs6"><clipPath
       id="clipPath18"
       clipPathUnits="userSpaceOnUse"><path
         id="path16"
         d="M 0,19.925 H 19.955 V 0 H 0 Z" /></clipPath></defs><g
     transform="matrix(1.3333333,0,0,-1.3333333,0,26.566667)"
     id="g10"><g
       id="g12"><g
         clip-path="url(#clipPath18)"
         id="g14"><g
           transform="translate(17.9058,10.5198)"
           id="g20"><path
             id="path22"
             style="fill:#68b738;fill-opacity:1;fill-rule:nonzero;stroke:none"
             d="M 0,0 H -8.5 V -1.2 H 0 l -2.101,-2.1 0.901,-0.9 3.099,3.1 c 0.201,0.2 0.201,0.6 0,0.9 L -1.2,2.9 -2.101,2 Z" /></g><g
           transform="translate(8.1055,0.5198)"
           id="g24"><path
             id="path26"
             style="fill:#68b738;fill-opacity:1;fill-rule:nonzero;stroke:none"
             d="M 0,0 V 6.2 C 0,6.5 -0.3,6.8 -0.6,6.8 H -3.7 -5 c 0,-0.7 0.6,-1.2 1.2,-1.2 h 2.5 v -5 H -5 C -6,0.5 -6.8,1.3 -6.9,2.3 v 0.2 13.8 c 0,1 0.8,1.8 1.7,1.8 h 0.2 3.7 v -5 h -2.4 c -0.7,0 -1.2,-0.6 -1.2,-1.2 h 4.4 c 0.3,0 0.6,0.3 0.6,0.6 v 6.3 C 0,19.1 -0.3,19.4 -0.6,19.4 H -5 c -1.6,0.1 -3,-1.2 -3.1,-2.9 V 16.3 2.6 c -0.1,-1.701 1.2,-3.1 2.9,-3.1 H -5 -0.6 C -0.3,-0.601 0,-0.3 0,0" /></g></g></g></g></svg>
