<?xml version="1.0" encoding="UTF-8" standalone="no"?>
<svg
   xmlns:dc="http://purl.org/dc/elements/1.1/"
   xmlns:cc="http://creativecommons.org/ns#"
   xmlns:rdf="http://www.w3.org/1999/02/22-rdf-syntax-ns#"
   xmlns:svg="http://www.w3.org/2000/svg"
   xmlns="http://www.w3.org/2000/svg"
   viewBox="0 0 40.004269 21.011999"
   height="21.011999"
   width="40.004269"
   xml:space="preserve"
   id="svg2"
   version="1.1"><metadata
     id="metadata8"><rdf:RDF><cc:Work
         rdf:about=""><dc:format>image/svg+xml</dc:format><dc:type
           rdf:resource="http://purl.org/dc/dcmitype/StillImage" /></cc:Work></rdf:RDF></metadata><defs
     id="defs6"><clipPath
       id="clipPath18"
       clipPathUnits="userSpaceOnUse"><path
         id="path16"
         d="M 0,15.759 H 30.003 V 0 H 0 Z" /></clipPath></defs><g
     transform="matrix(1.3333333,0,0,-1.3333333,0,21.012)"
     id="g10"><g
       id="g12"><g
         clip-path="url(#clipPath18)"
         id="g14"><g
           transform="translate(18.6314,4.8397)"
           id="g20"><path
             id="path22"
             style="fill:#444444;fill-opacity:1;fill-rule:nonzero;stroke:none"
             d="m 0,0 c 0.899,0 1.683,-0.786 2.511,-1.618 0.497,-0.5 1.011,-1.016 1.496,-1.307 0.727,-0.439 1.316,-0.421 1.398,-0.412 l 0.103,0.009 3.805,0.048 c 0.171,0.011 0.412,0.072 0.537,0.135 -0.019,0.04 -0.049,0.094 -0.099,0.167 C 9.302,-2.26 8.363,-1.318 7.065,-0.26 5.881,0.703 5.264,1.205 5.2,1.984 5.134,2.789 5.693,3.423 6.808,4.687 7.087,5.005 7.411,5.372 7.774,5.796 9.333,7.617 9.731,8.437 9.832,8.752 9.662,8.781 9.185,8.773 9.154,8.771 L 4.793,8.742 C 4.603,8.741 4.544,8.708 4.544,8.706 4.368,8.292 3.732,6.895 2.9,5.656 1.005,2.836 0.115,2.456 -0.507,2.455 c -0.204,0 -0.396,0.05 -0.569,0.149 C -2.079,3.172 -2.039,4.437 -2.01,5.36 -2.005,5.509 -2,5.655 -2,5.792 c 0,0.645 0.025,1.207 0.048,1.688 0.076,1.68 0.016,1.692 -0.379,1.776 -0.409,0.086 -0.705,0.147 -1.856,0.16 L -4.88,9.42 c -0.624,0 -1.343,-0.014 -1.906,-0.098 0.092,-0.073 0.18,-0.156 0.259,-0.251 0.588,-0.704 0.604,-1.951 0.601,-2.194 0.13,-1.646 0.061,-3.796 -1.018,-4.313 -0.191,-0.092 -0.392,-0.137 -0.597,-0.137 -0.926,0 -1.854,0.886 -3.425,3.267 -0.895,1.354 -1.56,2.824 -1.587,2.888 -0.011,0.021 -0.054,0.076 -0.075,0.093 -0.083,0.054 -0.233,0.097 -0.32,0.117 l -4.001,-0.025 c -0.021,-10e-4 -0.045,-0.002 -0.07,-0.005 0.591,-1.189 3.426,-6.592 6.519,-9.418 2.74,-2.503 5.826,-2.63 6.417,-2.63 l 1.852,0.004 c 0.045,0.01 0.217,0.061 0.268,0.099 -0.018,-0.018 -0.01,0.053 -0.01,0.097 -0.003,0.266 0.012,2.596 1.578,3.034 C -0.269,-0.018 -0.136,0 0,0 m 5.308,-4.84 c -0.387,0 -1.171,0.082 -2.076,0.632 -0.642,0.386 -1.223,0.969 -1.784,1.532 -0.438,0.441 -1.171,1.177 -1.447,1.177 -0.268,-0.074 -0.48,-0.921 -0.476,-1.568 0.004,-0.114 -0.001,-0.775 -0.467,-1.213 -0.426,-0.401 -1.089,-0.486 -1.217,-0.498 l -1.926,-0.008 c -0.967,0 -4.358,0.219 -7.429,3.021 -3.674,3.359 -6.835,9.798 -6.968,10.07 -0.197,0.462 -0.248,1.066 0.152,1.482 0.392,0.413 1.081,0.472 1.359,0.479 l 4.083,0.025 0.115,-0.009 c 0.091,-0.014 0.567,-0.094 0.957,-0.349 0.388,-0.246 0.59,-0.651 0.626,-0.73 0.01,-0.021 0.649,-1.432 1.475,-2.683 1.312,-1.991 1.896,-2.456 2.103,-2.562 0.188,0.417 0.277,1.699 0.187,2.87 10e-4,0.493 -0.101,1.098 -0.252,1.278 C -7.789,8.24 -8.103,8.359 -8.455,8.4 l -0.722,0.691 c -0.096,0.659 0.635,1.226 1.149,1.446 0.737,0.317 1.792,0.382 3.147,0.382 l 0.71,-0.005 c 1.235,-0.012 1.622,-0.081 2.15,-0.191 C -0.32,10.362 -0.382,8.994 -0.455,7.411 -0.476,6.947 -0.501,6.41 -0.501,5.791 -0.501,5.639 -0.506,5.479 -0.512,5.312 -0.523,4.931 -0.544,4.273 -0.419,4.007 -0.2,4.152 0.434,4.672 1.653,6.49 2.437,7.655 3.053,9.029 3.17,9.293 l 10e-4,0.001 c 0.183,0.43 0.608,0.941 1.613,0.946 l 4.275,0.024 c 0.011,0.003 0.171,0.016 0.377,0.016 0.979,0 1.596,-0.287 1.832,-0.854 C 11.536,8.776 11.437,7.77 8.913,4.821 8.543,4.389 8.216,4.017 7.931,3.694 7.333,3.016 6.715,2.315 6.694,2.099 6.747,1.931 7.356,1.435 7.946,0.954 9.477,-0.293 10.475,-1.31 10.979,-2.119 11.501,-2.878 11.408,-3.448 11.237,-3.796 10.813,-4.66 9.6,-4.769 9.36,-4.78 L 5.57,-4.828 C 5.516,-4.834 5.425,-4.84 5.308,-4.84" /></g></g></g></g></svg>
